<svg xmlns="http://www.w3.org/2000/svg" xmlns:xlink="http://www.w3.org/1999/xlink" width="500" zoomAndPan="magnify" viewBox="0 0 375 374.999991" height="500" preserveAspectRatio="xMidYMid meet" version="1.0"><defs><g><g id="id1"/><g id="id2"/><g id="id3"/><g id="id4"/><g id="id5"/><g id="id6"/><g id="id7"/></g><clipPath id="id8"><path d="M 22.25 153 L 136.9375 153 L 136.9375 248.964844 L 22.25 248.964844 Z M 22.25 153 " clip-rule="nonzero"/></clipPath></defs><g fill="rgb(16.468811%, 10.198975%, 24.708557%)" fill-opacity="1"><g transform="translate(152.312202, 188.027864)"><g><path d="M 24.734375 -28.296875 L 31.328125 -28.296875 L 19.390625 0 L 12.734375 0 L 0.84375 -28.296875 L 7.421875 -28.296875 L 16.078125 -7.140625 Z M 24.734375 -28.296875 "/></g></g></g><g fill="rgb(16.468811%, 10.198975%, 24.708557%)" fill-opacity="1"><g transform="translate(183.669855, 188.027864)"><g><path d="M 7.78125 0 L 2.28125 0 L 2.28125 -19.796875 L 7.78125 -19.796875 Z M 5.03125 -22.5 C 4.175781 -22.5 3.457031 -22.789062 2.875 -23.375 C 2.289062 -23.96875 2 -24.691406 2 -25.546875 C 2 -26.390625 2.289062 -27.109375 2.875 -27.703125 C 3.457031 -28.304688 4.175781 -28.609375 5.03125 -28.609375 C 5.882812 -28.609375 6.601562 -28.304688 7.1875 -27.703125 C 7.769531 -27.109375 8.0625 -26.390625 8.0625 -25.546875 C 8.0625 -24.691406 7.769531 -23.96875 7.1875 -23.375 C 6.601562 -22.789062 5.882812 -22.5 5.03125 -22.5 Z M 5.03125 -22.5 "/></g></g></g><g fill="rgb(16.468811%, 10.198975%, 24.708557%)" fill-opacity="1"><g transform="translate(192.969099, 188.027864)"><g><path d="M 7.21875 -17.046875 C 7.488281 -17.460938 7.796875 -17.863281 8.140625 -18.25 C 8.484375 -18.632812 8.894531 -18.976562 9.375 -19.28125 C 9.851562 -19.59375 10.398438 -19.84375 11.015625 -20.03125 C 11.628906 -20.21875 12.320312 -20.3125 13.09375 -20.3125 C 14 -20.3125 15.046875 -20.148438 16.234375 -19.828125 L 15.71875 -14.921875 C 15.425781 -14.972656 15.132812 -15.039062 14.84375 -15.125 C 14.601562 -15.175781 14.335938 -15.222656 14.046875 -15.265625 C 13.753906 -15.304688 13.488281 -15.328125 13.25 -15.328125 C 12.394531 -15.328125 11.601562 -15.207031 10.875 -14.96875 C 10.144531 -14.726562 9.515625 -14.394531 8.984375 -13.96875 C 8.453125 -13.539062 8.023438 -13.023438 7.703125 -12.421875 C 7.378906 -11.828125 7.21875 -11.1875 7.21875 -10.5 L 7.21875 0 L 1.71875 0 L 1.71875 -19.796875 L 6.703125 -19.796875 Z M 7.21875 -17.046875 "/></g></g></g><g fill="rgb(16.468811%, 10.198975%, 24.708557%)" fill-opacity="1"><g transform="translate(208.614258, 188.027864)"><g><path d="M 9.09375 -7.109375 C 9.09375 -6.171875 9.378906 -5.445312 9.953125 -4.9375 C 10.523438 -4.4375 11.28125 -4.1875 12.21875 -4.1875 C 12.957031 -4.1875 13.703125 -4.332031 14.453125 -4.625 L 14.453125 0 C 13.785156 0.207031 13.078125 0.382812 12.328125 0.53125 C 11.585938 0.6875 10.84375 0.765625 10.09375 0.765625 C 9.238281 0.765625 8.425781 0.65625 7.65625 0.4375 C 6.882812 0.226562 6.191406 -0.132812 5.578125 -0.65625 C 4.972656 -1.175781 4.488281 -1.867188 4.125 -2.734375 C 3.769531 -3.597656 3.59375 -4.671875 3.59375 -5.953125 L 3.59375 -14.890625 L 0.765625 -14.890625 L 0.765625 -18.59375 L 3.59375 -19.796875 L 3.59375 -24.21875 L 9.09375 -24.21875 L 9.09375 -19.796875 L 14.453125 -19.796875 L 14.453125 -14.890625 L 9.09375 -14.890625 Z M 9.09375 -7.109375 "/></g></g></g><g fill="rgb(16.468811%, 10.198975%, 24.708557%)" fill-opacity="1"><g transform="translate(223.101986, 188.027864)"><g><path d="M 14.328125 -19.796875 L 19.828125 -19.796875 L 19.828125 0 L 15.125 0 L 14.328125 -1.515625 C 13.691406 -1.066406 12.96875 -0.703125 12.15625 -0.421875 C 11.34375 -0.140625 10.46875 0 9.53125 0 C 8.8125 0 7.992188 -0.101562 7.078125 -0.3125 C 6.160156 -0.53125 5.300781 -0.929688 4.5 -1.515625 C 3.707031 -2.097656 3.035156 -2.90625 2.484375 -3.9375 C 1.941406 -4.976562 1.671875 -6.328125 1.671875 -7.984375 L 1.671875 -19.796875 L 7.21875 -19.796875 L 7.21875 -8.1875 C 7.21875 -7.570312 7.316406 -7.050781 7.515625 -6.625 C 7.722656 -6.195312 7.988281 -5.859375 8.3125 -5.609375 C 8.644531 -5.359375 9.023438 -5.171875 9.453125 -5.046875 C 9.878906 -4.929688 10.320312 -4.875 10.78125 -4.875 C 11.125 -4.875 11.5 -4.929688 11.90625 -5.046875 C 12.320312 -5.171875 12.707031 -5.363281 13.0625 -5.625 C 13.425781 -5.894531 13.726562 -6.238281 13.96875 -6.65625 C 14.207031 -7.082031 14.328125 -7.59375 14.328125 -8.1875 Z M 14.328125 -19.796875 "/></g></g></g><g fill="rgb(16.468811%, 10.198975%, 24.708557%)" fill-opacity="1"><g transform="translate(243.975538, 188.027864)"><g><path d="M 22.5 -19.796875 L 22.5 0 L 17.765625 0 L 17.203125 -2.109375 C 16.429688 -1.078125 15.503906 -0.382812 14.421875 -0.03125 C 13.347656 0.3125 12.222656 0.484375 11.046875 0.484375 C 9.640625 0.484375 8.34375 0.210938 7.15625 -0.328125 C 5.976562 -0.878906 4.945312 -1.625 4.0625 -2.5625 C 3.1875 -3.507812 2.503906 -4.613281 2.015625 -5.875 C 1.523438 -7.144531 1.28125 -8.5 1.28125 -9.9375 C 1.28125 -11.375 1.523438 -12.722656 2.015625 -13.984375 C 2.503906 -15.242188 3.1875 -16.347656 4.0625 -17.296875 C 4.945312 -18.242188 5.976562 -18.988281 7.15625 -19.53125 C 8.34375 -20.082031 9.640625 -20.359375 11.046875 -20.359375 C 12.328125 -20.359375 13.5 -20.15625 14.5625 -19.75 C 15.625 -19.351562 16.503906 -18.71875 17.203125 -17.84375 L 17.765625 -19.796875 Z M 17 -9.859375 C 17 -10.890625 16.859375 -11.757812 16.578125 -12.46875 C 16.296875 -13.175781 15.921875 -13.75 15.453125 -14.1875 C 14.992188 -14.625 14.453125 -14.941406 13.828125 -15.140625 C 13.203125 -15.335938 12.53125 -15.4375 11.8125 -15.4375 C 11.09375 -15.4375 10.421875 -15.289062 9.796875 -15 C 9.171875 -14.707031 8.617188 -14.316406 8.140625 -13.828125 C 7.660156 -13.335938 7.285156 -12.75 7.015625 -12.0625 C 6.753906 -11.382812 6.625 -10.675781 6.625 -9.9375 C 6.625 -9.164062 6.753906 -8.445312 7.015625 -7.78125 C 7.285156 -7.113281 7.660156 -6.535156 8.140625 -6.046875 C 8.617188 -5.554688 9.171875 -5.160156 9.796875 -4.859375 C 10.421875 -4.566406 11.09375 -4.421875 11.8125 -4.421875 C 13.25 -4.421875 14.460938 -4.867188 15.453125 -5.765625 C 16.453125 -6.660156 16.96875 -8.023438 17 -9.859375 Z M 17 -9.859375 "/></g></g></g><g fill="rgb(16.468811%, 10.198975%, 24.708557%)" fill-opacity="1"><g transform="translate(267.44332, 188.027864)"><g><path d="M 1.953125 -29.171875 L 7.46875 -29.171875 L 7.46875 0 L 1.953125 0 Z M 1.953125 -29.171875 "/></g></g></g><g fill="rgb(16.468811%, 10.198975%, 24.708557%)" fill-opacity="1"><g transform="translate(275.704868, 188.027864)"><g/></g></g><g fill="rgb(16.468811%, 10.198975%, 24.708557%)" fill-opacity="1"><g transform="translate(285.88217, 188.027864)"><g><path d="M 7.9375 -5.46875 L 19.546875 -5.46875 L 19.546875 0 L 1.875 0 L 1.875 -28.296875 L 7.9375 -28.296875 Z M 7.9375 -5.46875 "/></g></g></g><g fill="rgb(16.468811%, 10.198975%, 24.708557%)" fill-opacity="1"><g transform="translate(305.039529, 188.027864)"><g><path d="M 22.5 -19.796875 L 22.5 0 L 17.765625 0 L 17.203125 -2.109375 C 16.429688 -1.078125 15.503906 -0.382812 14.421875 -0.03125 C 13.347656 0.3125 12.222656 0.484375 11.046875 0.484375 C 9.640625 0.484375 8.34375 0.210938 7.15625 -0.328125 C 5.976562 -0.878906 4.945312 -1.625 4.0625 -2.5625 C 3.1875 -3.507812 2.503906 -4.613281 2.015625 -5.875 C 1.523438 -7.144531 1.28125 -8.5 1.28125 -9.9375 C 1.28125 -11.375 1.523438 -12.722656 2.015625 -13.984375 C 2.503906 -15.242188 3.1875 -16.347656 4.0625 -17.296875 C 4.945312 -18.242188 5.976562 -18.988281 7.15625 -19.53125 C 8.34375 -20.082031 9.640625 -20.359375 11.046875 -20.359375 C 12.328125 -20.359375 13.5 -20.15625 14.5625 -19.75 C 15.625 -19.351562 16.503906 -18.71875 17.203125 -17.84375 L 17.765625 -19.796875 Z M 17 -9.859375 C 17 -10.890625 16.859375 -11.757812 16.578125 -12.46875 C 16.296875 -13.175781 15.921875 -13.75 15.453125 -14.1875 C 14.992188 -14.625 14.453125 -14.941406 13.828125 -15.140625 C 13.203125 -15.335938 12.53125 -15.4375 11.8125 -15.4375 C 11.09375 -15.4375 10.421875 -15.289062 9.796875 -15 C 9.171875 -14.707031 8.617188 -14.316406 8.140625 -13.828125 C 7.660156 -13.335938 7.285156 -12.75 7.015625 -12.0625 C 6.753906 -11.382812 6.625 -10.675781 6.625 -9.9375 C 6.625 -9.164062 6.753906 -8.445312 7.015625 -7.78125 C 7.285156 -7.113281 7.660156 -6.535156 8.140625 -6.046875 C 8.617188 -5.554688 9.171875 -5.160156 9.796875 -4.859375 C 10.421875 -4.566406 11.09375 -4.421875 11.8125 -4.421875 C 13.25 -4.421875 14.460938 -4.867188 15.453125 -5.765625 C 16.453125 -6.660156 16.96875 -8.023438 17 -9.859375 Z M 17 -9.859375 "/></g></g></g><g fill="rgb(16.468811%, 10.198975%, 24.708557%)" fill-opacity="1"><g transform="translate(328.507315, 188.027864)"><g><path d="M 13.25 -20.359375 C 14.632812 -20.359375 15.925781 -20.082031 17.125 -19.53125 C 18.320312 -18.988281 19.359375 -18.242188 20.234375 -17.296875 C 21.109375 -16.347656 21.789062 -15.242188 22.28125 -13.984375 C 22.78125 -12.722656 23.03125 -11.375 23.03125 -9.9375 C 23.03125 -8.5 22.78125 -7.144531 22.28125 -5.875 C 21.789062 -4.613281 21.109375 -3.507812 20.234375 -2.5625 C 19.359375 -1.625 18.320312 -0.878906 17.125 -0.328125 C 15.925781 0.210938 14.632812 0.484375 13.25 0.484375 C 12.082031 0.484375 10.957031 0.273438 9.875 -0.140625 C 8.800781 -0.554688 7.957031 -1.082031 7.34375 -1.71875 L 6.546875 0 L 1.828125 0 L 1.828125 -29.125 L 7.34375 -29.125 L 7.34375 -18.203125 C 8.863281 -19.640625 10.832031 -20.359375 13.25 -20.359375 Z M 12.484375 -4.421875 C 13.203125 -4.421875 13.875 -4.566406 14.5 -4.859375 C 15.125 -5.160156 15.675781 -5.554688 16.15625 -6.046875 C 16.632812 -6.535156 17.003906 -7.113281 17.265625 -7.78125 C 17.535156 -8.445312 17.671875 -9.164062 17.671875 -9.9375 C 17.671875 -10.675781 17.535156 -11.382812 17.265625 -12.0625 C 17.003906 -12.75 16.632812 -13.335938 16.15625 -13.828125 C 15.675781 -14.316406 15.125 -14.707031 14.5 -15 C 13.875 -15.289062 13.203125 -15.4375 12.484375 -15.4375 C 11.765625 -15.4375 11.09375 -15.335938 10.46875 -15.140625 C 9.84375 -14.941406 9.296875 -14.625 8.828125 -14.1875 C 8.367188 -13.75 8.003906 -13.175781 7.734375 -12.46875 C 7.472656 -11.757812 7.34375 -10.890625 7.34375 -9.859375 C 7.34375 -8.921875 7.472656 -8.113281 7.734375 -7.4375 C 8.003906 -6.757812 8.367188 -6.203125 8.828125 -5.765625 C 9.296875 -5.328125 9.84375 -4.992188 10.46875 -4.765625 C 11.09375 -4.535156 11.765625 -4.421875 12.484375 -4.421875 Z M 12.484375 -4.421875 "/></g></g></g><g fill="rgb(16.468811%, 10.198975%, 24.708557%)" fill-opacity="1"><g transform="translate(210.135977, 229.724969)"><g><path d="M 8.296875 -20.84375 L 8.296875 -2.875 L 10.046875 -2.875 L 10.046875 0 L 3.046875 0 L 3.046875 -2.875 L 4.8125 -2.875 L 4.8125 -20.84375 L 3.046875 -20.84375 L 3.046875 -23.734375 L 10.046875 -23.734375 L 10.046875 -20.84375 Z M 8.296875 -20.84375 "/></g></g></g><g fill="rgb(16.468811%, 10.198975%, 24.708557%)" fill-opacity="1"><g transform="translate(225.96698, 229.724969)"><g><path d="M 6.59375 -20.578125 L 0.171875 -20.578125 L 0.171875 -23.734375 L 16.53125 -23.734375 L 16.53125 -20.578125 L 10.078125 -20.578125 L 10.078125 0 L 6.59375 0 Z M 6.59375 -20.578125 "/></g></g></g><g fill="rgb(16.468811%, 10.198975%, 24.708557%)" fill-opacity="1"><g transform="translate(246.114991, 229.724969)"><g><path d="M 22.328125 -23.734375 L 22.328125 0 L 18.78125 0 L 5.515625 -18.203125 L 5.515625 0 L 1.875 0 L 1.875 -23.734375 L 5.5625 -23.734375 L 18.8125 -5.421875 L 18.8125 -23.734375 Z M 22.328125 -23.734375 "/></g></g></g><g fill="rgb(16.468811%, 10.198975%, 24.708557%)" fill-opacity="1"><g transform="translate(273.056477, 229.724969)"><g><path d="M 19.3125 -8.40625 C 19.3125 -7.195312 19.082031 -6.0625 18.625 -5 C 18.164062 -3.9375 17.546875 -3.007812 16.765625 -2.21875 C 15.984375 -1.425781 15.066406 -0.800781 14.015625 -0.34375 C 12.972656 0.101562 11.847656 0.328125 10.640625 0.328125 C 9.429688 0.328125 8.300781 0.101562 7.25 -0.34375 C 6.207031 -0.800781 5.296875 -1.425781 4.515625 -2.21875 C 3.734375 -3.007812 3.113281 -3.9375 2.65625 -5 C 2.195312 -6.0625 1.96875 -7.195312 1.96875 -8.40625 L 1.96875 -23.734375 L 5.453125 -23.734375 L 5.453125 -8.40625 C 5.453125 -7.6875 5.585938 -7.003906 5.859375 -6.359375 C 6.128906 -5.710938 6.5 -5.132812 6.96875 -4.625 C 7.4375 -4.125 7.988281 -3.726562 8.625 -3.4375 C 9.257812 -3.15625 9.929688 -3.015625 10.640625 -3.015625 C 11.359375 -3.015625 12.03125 -3.15625 12.65625 -3.4375 C 13.28125 -3.726562 13.828125 -4.125 14.296875 -4.625 C 14.765625 -5.132812 15.128906 -5.710938 15.390625 -6.359375 C 15.660156 -7.003906 15.796875 -7.6875 15.796875 -8.40625 L 15.796875 -23.734375 L 19.3125 -23.734375 Z M 19.3125 -8.40625 "/></g></g></g><path fill="rgb(70.979309%, 88.238525%, 97.648621%)" d="M 123.066406 237.972656 C 124.007812 237.972656 124.597656 236.953125 124.128906 236.136719 L 107.011719 206.257812 C 102.796875 198.90625 99.503906 186.515625 99.503906 178.046875 L 99.503906 174.9375 C 99.503906 174.449219 98.960938 174.160156 98.554688 174.425781 C 84.835938 183.367188 59.632812 165.792969 59.632812 173.730469 C 59.632812 176.917969 59.632812 178.046875 59.632812 178.046875 C 59.632812 186.515625 56.335938 198.902344 52.121094 206.253906 L 35.003906 236.136719 C 34.539062 236.953125 35.125 237.972656 36.066406 237.972656 Z M 123.066406 237.972656 " fill-opacity="1" fill-rule="nonzero"/><path fill="rgb(11.759949%, 72.158813%, 81.959534%)" d="M 86.917969 155.382812 C 87.082031 155.808594 86.859375 156.289062 86.441406 156.445312 L 79.191406 159.226562 C 78.773438 159.382812 78.292969 159.175781 78.132812 158.753906 L 75.347656 151.511719 C 75.191406 151.085938 75.394531 150.609375 75.820312 150.449219 L 83.074219 147.671875 C 83.492188 147.511719 83.972656 147.722656 84.128906 148.148438 Z M 81.769531 126.359375 C 81.472656 126.015625 80.949219 125.964844 80.605469 126.257812 L 74.621094 131.210938 C 74.28125 131.496094 74.238281 132.015625 74.519531 132.367188 L 79.480469 138.332031 C 79.765625 138.6875 80.285156 138.730469 80.636719 138.445312 L 86.613281 133.492188 C 86.957031 133.203125 87.011719 132.683594 86.722656 132.335938 Z M 81.769531 126.359375 " fill-opacity="1" fill-rule="nonzero"/><g clip-path="url(#id8)"><path fill="rgb(16.468811%, 10.198975%, 24.708557%)" d="M 104.84375 153.453125 C 104.164062 153.453125 103.617188 154 103.617188 154.675781 L 103.617188 178.359375 C 103.617188 186.214844 106.675781 197.707031 110.578125 204.527344 L 128.574219 235.914062 C 129.691406 237.855469 129.957031 239.597656 129.324219 240.683594 C 128.691406 241.773438 127.050781 242.398438 124.808594 242.398438 L 34.328125 242.398438 C 32.085938 242.398438 30.4375 241.773438 29.808594 240.683594 C 29.175781 239.597656 29.445312 237.855469 30.570312 235.914062 L 48.558594 204.519531 C 52.460938 197.707031 55.519531 186.210938 55.519531 178.359375 L 55.519531 154.675781 C 55.519531 154 54.972656 153.453125 54.292969 153.453125 L 44.828125 153.453125 C 43.921875 153.453125 43.183594 154.191406 43.183594 155.09375 L 43.183594 158.375 C 43.183594 159.277344 43.921875 160.015625 44.828125 160.015625 L 48.949219 160.015625 L 48.949219 178.359375 C 48.949219 185 46.15625 195.492188 42.851562 201.261719 L 24.863281 232.648438 C 22.546875 236.683594 22.277344 240.808594 24.117188 243.984375 C 25.960938 247.144531 29.675781 248.960938 34.328125 248.960938 L 124.808594 248.960938 C 129.457031 248.960938 133.1875 247.144531 135.019531 243.984375 C 136.851562 240.808594 136.585938 236.683594 134.28125 232.648438 L 116.292969 201.269531 C 112.980469 195.496094 110.1875 185.007812 110.1875 178.363281 L 110.1875 160.019531 L 114.363281 160.019531 C 115.273438 160.019531 116.003906 159.285156 116.003906 158.378906 L 116.003906 155.09375 C 116.003906 154.183594 115.269531 153.453125 114.363281 153.453125 Z M 104.84375 153.453125 " fill-opacity="1" fill-rule="nonzero"/></g><path fill="rgb(85.879517%, 16.468811%, 49.798584%)" d="M 67.429688 150.957031 C 67.125 151.292969 66.605469 151.320312 66.273438 151.019531 L 60.5 145.835938 C 60.15625 145.53125 60.136719 145.007812 60.433594 144.671875 L 65.628906 138.90625 C 65.925781 138.574219 66.453125 138.542969 66.792969 138.847656 L 72.570312 144.03125 C 72.898438 144.335938 72.925781 144.859375 72.628906 145.195312 Z M 86.441406 175.425781 C 87.398438 175.492188 88.34375 175.519531 89.28125 175.492188 C 89.605469 175.484375 89.917969 175.367188 90.175781 175.164062 L 94.105469 172.085938 C 94.457031 171.8125 94.53125 171.292969 94.246094 170.933594 L 89.453125 164.832031 C 89.175781 164.472656 88.65625 164.414062 88.300781 164.691406 L 82.1875 169.472656 C 81.828125 169.753906 81.773438 170.269531 82.046875 170.628906 L 85.355469 174.839844 C 85.621094 175.179688 86.015625 175.394531 86.441406 175.425781 Z M 86.441406 175.425781 " fill-opacity="1" fill-rule="nonzero"/><path fill="rgb(13.328552%, 65.098572%, 60.389709%)" d="M 100.945312 146.671875 C 101.121094 147.085938 100.925781 147.574219 100.507812 147.746094 L 93.355469 150.769531 C 92.9375 150.949219 92.457031 150.75 92.277344 150.335938 L 89.25 143.1875 C 89.078125 142.769531 89.265625 142.289062 89.691406 142.109375 L 96.839844 139.089844 C 97.257812 138.914062 97.738281 139.109375 97.917969 139.523438 Z M 63.917969 168.738281 L 65.875 170.035156 C 66.84375 170.679688 67.90625 171.164062 69.023438 171.488281 C 69.722656 171.6875 70.449219 171.902344 71.195312 172.125 C 71.582031 172.238281 72 172.085938 72.222656 171.75 L 75.824219 166.339844 C 76.070312 165.96875 75.976562 165.449219 75.59375 165.199219 L 69.125 160.910156 C 68.746094 160.65625 68.234375 160.765625 67.988281 161.140625 L 63.6875 167.597656 C 63.433594 167.976562 63.546875 168.484375 63.917969 168.738281 Z M 63.917969 168.738281 " fill-opacity="1" fill-rule="nonzero"/><g fill="rgb(100%, 100%, 100%)" fill-opacity="1"><g transform="translate(66.323359, 167.517927)"><g><path d="M 0.09375 0.046875 L 0.3125 -0.34375 L 0.984375 0.03125 L 2.859375 -3.390625 L 2.1875 -3.765625 L 2.421875 -4.1875 L 3.9375 -3.34375 L 4.015625 1.234375 L 5.6875 -1.828125 L 5.015625 -2.203125 L 5.25 -2.625 L 7.109375 -1.609375 L 6.875 -1.1875 L 6.234375 -1.53125 L 4.140625 2.28125 L 3.390625 1.875 L 3.296875 -2.90625 L 1.515625 0.328125 L 2.15625 0.671875 L 1.9375 1.0625 Z M 0.09375 0.046875 "/></g></g></g><g fill="rgb(100%, 100%, 100%)" fill-opacity="1"><g transform="translate(87.909496, 174.909378)"><g><path d="M -0.234375 -0.40625 L 0.34375 -0.9375 L -2.3125 -3.8125 L -2.890625 -3.28125 L -3.203125 -3.625 L -2.140625 -4.59375 C -1.878906 -4.84375 -1.625 -5.050781 -1.375 -5.21875 C -1.125 -5.382812 -0.863281 -5.519531 -0.59375 -5.625 C -0.300781 -5.726562 -0.0234375 -5.78125 0.234375 -5.78125 C 0.503906 -5.789062 0.773438 -5.734375 1.046875 -5.609375 C 1.328125 -5.484375 1.59375 -5.285156 1.84375 -5.015625 C 2.070312 -4.773438 2.242188 -4.519531 2.359375 -4.25 C 2.472656 -3.976562 2.523438 -3.71875 2.515625 -3.46875 C 2.515625 -3.207031 2.460938 -2.941406 2.359375 -2.671875 C 2.253906 -2.398438 2.101562 -2.140625 1.90625 -1.890625 C 1.726562 -1.640625 1.503906 -1.390625 1.234375 -1.140625 L 0.078125 -0.078125 Z M 0.890625 -1.4375 C 1.097656 -1.632812 1.265625 -1.820312 1.390625 -2 C 1.523438 -2.175781 1.632812 -2.363281 1.71875 -2.5625 C 1.800781 -2.757812 1.84375 -2.957031 1.84375 -3.15625 C 1.84375 -3.363281 1.789062 -3.578125 1.6875 -3.796875 C 1.59375 -4.015625 1.441406 -4.234375 1.234375 -4.453125 C 1.078125 -4.628906 0.921875 -4.769531 0.765625 -4.875 C 0.609375 -4.976562 0.453125 -5.050781 0.296875 -5.09375 C 0.160156 -5.144531 0.0195312 -5.164062 -0.125 -5.15625 C -0.269531 -5.15625 -0.414062 -5.132812 -0.5625 -5.09375 C -0.695312 -5.039062 -0.832031 -4.976562 -0.96875 -4.90625 C -1.101562 -4.832031 -1.238281 -4.742188 -1.375 -4.640625 C -1.5 -4.546875 -1.628906 -4.4375 -1.765625 -4.3125 Z M 0.890625 -1.4375 "/></g></g></g><g fill="rgb(100%, 100%, 100%)" fill-opacity="1"><g transform="translate(80.098891, 135.198896)"><g><path d="M 0.015625 -0.015625 L -0.3125 -0.328125 L 0.09375 -0.75 L -1.921875 -5 L -1.40625 -5.546875 L 2.953125 -3.765625 L 3.3125 -4.15625 L 3.640625 -3.84375 L 2.21875 -2.34375 L 1.890625 -2.65625 L 2.375 -3.171875 L 1.234375 -3.65625 L -0.046875 -2.296875 L 0.515625 -1.203125 L 1.0625 -1.78125 L 1.390625 -1.46875 Z M -0.234375 -2.6875 L 0.828125 -3.8125 L -1.296875 -4.71875 Z M -0.234375 -2.6875 "/></g></g></g><g fill="rgb(100%, 100%, 100%)" fill-opacity="1"><g transform="translate(79.365995, 156.322692)"><g><path d="M 0.03125 -0.015625 L -0.15625 -0.421875 L 0.375 -0.65625 L 0.125 -5.34375 L 0.8125 -5.640625 L 4.171875 -2.34375 L 4.65625 -2.5625 L 4.84375 -2.15625 L 2.953125 -1.3125 L 2.765625 -1.71875 L 3.40625 -2.015625 L 2.546875 -2.890625 L 0.84375 -2.140625 L 0.9375 -0.90625 L 1.671875 -1.234375 L 1.859375 -0.828125 Z M 0.8125 -2.578125 L 2.21875 -3.203125 L 0.625 -4.859375 Z M 0.8125 -2.578125 "/></g></g></g><g fill="rgb(100%, 100%, 100%)" fill-opacity="1"><g transform="translate(93.220409, 147.650898)"><g><path d="M 2.015625 -0.8125 C 1.773438 -0.695312 1.539062 -0.613281 1.3125 -0.5625 C 1.09375 -0.507812 0.875 -0.488281 0.65625 -0.5 C 0.4375 -0.5 0.242188 -0.550781 0.078125 -0.65625 C -0.078125 -0.757812 -0.191406 -0.894531 -0.265625 -1.0625 C -0.316406 -1.164062 -0.335938 -1.269531 -0.328125 -1.375 C -0.316406 -1.488281 -0.28125 -1.585938 -0.21875 -1.671875 C -0.15625 -1.753906 -0.078125 -1.816406 0.015625 -1.859375 C 0.0976562 -1.898438 0.1875 -1.910156 0.28125 -1.890625 C 0.375 -1.878906 0.457031 -1.84375 0.53125 -1.78125 C 0.613281 -1.71875 0.671875 -1.648438 0.703125 -1.578125 C 0.753906 -1.453125 0.757812 -1.335938 0.71875 -1.234375 C 0.675781 -1.128906 0.59375 -1.039062 0.46875 -0.96875 C 0.65625 -0.9375 0.847656 -0.929688 1.046875 -0.953125 C 1.253906 -0.984375 1.488281 -1.054688 1.75 -1.171875 C 2.1875 -1.359375 2.457031 -1.601562 2.5625 -1.90625 C 2.613281 -2.0625 2.601562 -2.222656 2.53125 -2.390625 C 2.445312 -2.566406 2.316406 -2.6875 2.140625 -2.75 C 2.054688 -2.78125 1.953125 -2.796875 1.828125 -2.796875 C 1.710938 -2.804688 1.582031 -2.800781 1.4375 -2.78125 C 1.28125 -2.757812 1.117188 -2.726562 0.953125 -2.6875 C 0.523438 -2.625 0.160156 -2.601562 -0.140625 -2.625 C -0.441406 -2.644531 -0.671875 -2.722656 -0.828125 -2.859375 C -0.984375 -2.960938 -1.113281 -3.128906 -1.21875 -3.359375 C -1.320312 -3.597656 -1.34375 -3.84375 -1.28125 -4.09375 C -1.226562 -4.351562 -1.097656 -4.59375 -0.890625 -4.8125 C -0.679688 -5.03125 -0.414062 -5.210938 -0.09375 -5.359375 C 0.195312 -5.484375 0.492188 -5.566406 0.796875 -5.609375 C 0.992188 -5.609375 1.164062 -5.597656 1.3125 -5.578125 C 1.457031 -5.554688 1.585938 -5.507812 1.703125 -5.4375 C 1.835938 -5.351562 1.929688 -5.25 1.984375 -5.125 C 2.066406 -4.945312 2.085938 -4.78125 2.046875 -4.625 C 2.003906 -4.476562 1.90625 -4.375 1.75 -4.3125 C 1.65625 -4.257812 1.566406 -4.234375 1.484375 -4.234375 C 1.398438 -4.242188 1.316406 -4.269531 1.234375 -4.3125 C 1.160156 -4.351562 1.101562 -4.414062 1.0625 -4.5 C 1 -4.644531 0.988281 -4.773438 1.03125 -4.890625 C 1.070312 -5.003906 1.148438 -5.085938 1.265625 -5.140625 C 0.960938 -5.210938 0.597656 -5.15625 0.171875 -4.96875 C -0.015625 -4.875 -0.175781 -4.765625 -0.3125 -4.640625 C -0.445312 -4.523438 -0.539062 -4.390625 -0.59375 -4.234375 C -0.65625 -4.078125 -0.648438 -3.925781 -0.578125 -3.78125 C -0.546875 -3.707031 -0.507812 -3.648438 -0.46875 -3.609375 C -0.4375 -3.566406 -0.382812 -3.523438 -0.3125 -3.484375 C -0.257812 -3.441406 -0.179688 -3.410156 -0.078125 -3.390625 C 0.015625 -3.378906 0.132812 -3.378906 0.28125 -3.390625 C 0.425781 -3.398438 0.597656 -3.425781 0.796875 -3.46875 C 1.410156 -3.59375 1.898438 -3.628906 2.265625 -3.578125 C 2.421875 -3.554688 2.566406 -3.507812 2.703125 -3.4375 C 2.835938 -3.363281 2.941406 -3.273438 3.015625 -3.171875 C 3.085938 -3.085938 3.15625 -2.972656 3.21875 -2.828125 C 3.332031 -2.566406 3.363281 -2.3125 3.3125 -2.0625 C 3.257812 -1.820312 3.125 -1.59375 2.90625 -1.375 C 2.6875 -1.15625 2.390625 -0.96875 2.015625 -0.8125 Z M 2.015625 -0.8125 "/></g></g></g><g fill="rgb(100%, 100%, 100%)" fill-opacity="1"><g transform="translate(62.63697, 145.013579)"><g><path d="M 0.375 -0.265625 L 0.96875 0.234375 L 3.53125 -2.703125 L 2.9375 -3.203125 L 3.25 -3.5625 L 4.734375 -2.28125 C 4.859375 -2.175781 4.953125 -2.085938 5.015625 -2.015625 C 5.085938 -1.941406 5.171875 -1.851562 5.265625 -1.75 C 5.378906 -1.625 5.46875 -1.507812 5.53125 -1.40625 C 5.601562 -1.3125 5.664062 -1.195312 5.71875 -1.0625 C 5.769531 -0.925781 5.796875 -0.796875 5.796875 -0.671875 C 5.796875 -0.554688 5.773438 -0.425781 5.734375 -0.28125 C 5.691406 -0.144531 5.613281 -0.015625 5.5 0.109375 C 5.382812 0.234375 5.265625 0.332031 5.140625 0.40625 C 5.015625 0.488281 4.890625 0.539062 4.765625 0.5625 C 4.640625 0.582031 4.503906 0.578125 4.359375 0.546875 C 4.222656 0.515625 4.097656 0.46875 3.984375 0.40625 C 3.878906 0.363281 3.753906 0.289062 3.609375 0.1875 C 3.460938 0.09375 3.332031 0.00390625 3.21875 -0.078125 C 3.113281 -0.171875 2.988281 -0.28125 2.84375 -0.40625 L 2.65625 -0.5625 L 1.53125 0.734375 L 2.140625 1.25 L 1.84375 1.59375 L 0.078125 0.078125 Z M 3.265625 -0.5625 C 3.941406 0.03125 4.484375 0.09375 4.890625 -0.375 C 5.003906 -0.5 5.078125 -0.632812 5.109375 -0.78125 C 5.140625 -0.894531 5.132812 -1.019531 5.09375 -1.15625 C 5.0625 -1.25 4.984375 -1.367188 4.859375 -1.515625 C 4.785156 -1.585938 4.664062 -1.703125 4.5 -1.859375 C 4.457031 -1.890625 4.382812 -1.953125 4.28125 -2.046875 L 4.09375 -2.203125 L 2.921875 -0.859375 Z M 3.265625 -0.5625 "/></g></g></g></svg>